<svg xmlns="http://www.w3.org/2000/svg" viewBox="0 0 512 512" width="100%" height="100%">
  <rect width="512" height="512" rx="128" fill="#00288e"/>
  <path d="M140 170 h232 v-50 a20 20 0 0 0 -20 -20 h-192 a20 20 0 0 0 -20 20 z" fill="#ffffff" opacity="0.9"/>
  <path d="M110 170 h292 a20 20 0 0 1 20 20 v120 a20 20 0 0 1 -20 20 h-292 a20 20 0 0 1 -20 -20 v-120 a20 20 0 0 1 20 -20 z" fill="#ffffff"/>
  <circle cx="160" cy="230" r="16" fill="#00288e"/>
  <rect x="300" y="215" width="60" height="30" rx="15" fill="#6bff8f"/>
  <path d="M150 280 h212 v110 a10 10 0 0 1 -10 10 h-192 a10 10 0 0 1 -10 -10 z" fill="#dde1ff"/>
  <line x1="180" y1="315" x2="332" y2="315" stroke="#00288e" stroke-width="12" stroke-linecap="round"/>
  <line x1="180" y1="345" x2="280" y2="345" stroke="#00288e" stroke-width="12" stroke-linecap="round"/>
</svg>
